Coordinates
version=1
nRows=7
nColumns=42
inDegrees=yes

Units are S.I. units (second, meters, Newtons, ...)
If the header above contains a line with 'inDegrees', this indicates whether rotational values are in degrees (yes) or radians (no).

endheader
time	pelvis_tilt	pelvis_list	pelvis_rotation	pelvis_tx	pelvis_ty	pelvis_tz	hip_flexion_r	hip_adduction_r	hip_rotation_r	knee_angle_r	knee_adduction_r	knee_angle_r_beta	ankle_angle_r	subtalar_angle_r	mtp_angle_r	hip_flexion_l	hip_adduction_l	hip_rotation_l	knee_angle_l	knee_adduction_l	knee_angle_l_beta	ankle_angle_l	subtalar_angle_l	mtp_angle_l	lumbar_extension	lumbar_bending	lumbar_rotation	arm_flex_r	arm_add_r	arm_rot_r	elbow_flex_r	pro_sup_r	wrist_flex_r	wrist_dev_r	arm_flex_l	arm_add_l	arm_rot_l	elbow_flex_l	pro_sup_l	wrist_flex_l	wrist_dev_l
      1.94000000	     -9.45905081	     -1.29320165	     -3.15601883	      0.42458870	      0.91349550	     -0.07831214	     -8.57507724	      8.73132412	     -2.19573830	      3.63568716	     -7.39284752	      0.06345471	     24.60727120	      8.30650848	     -7.50673573	     36.67736920	     -1.41798539	     -4.37474680	      8.56330423	     -4.95485446	      0.14945785	      6.45379796	      4.59678441	     -7.50673573	      1.71115784	     -0.13244235	      3.27098079	      7.99508316	    -18.29344327	      1.83885132	     40.89725333	     90.00000001	      0.00000000	      0.00000000	    -19.06801449	    -10.66746453	    -14.34399561	     17.74621484	     90.00000001	      0.00000000	      0.00000000
      1.95000000	     -9.47651228	     -1.13041325	     -3.37896774	      0.43645890	      0.91195282	     -0.07845292	     -9.10582843	      8.34929734	     -1.97324950	      4.21373930	     -7.22298217	      0.07354362	     24.60138194	      8.19801204	     -7.50665474	     36.90938654	     -1.26960291	     -4.53643717	      9.50939769	     -5.02177371	      0.16597030	      6.06102886	      4.28641076	     -7.50665474	      1.72535227	     -0.49802268	      3.44726787	      7.80300760	    -18.22050029	      1.71682435	     40.93368170	     90.00000001	      0.00000000	      0.00000000	    -18.92349214	    -10.83117495	    -14.27785746	     17.57633706	     90.00000001	      0.00000000	      0.00000000
      1.96000000	     -9.52682314	     -0.84468857	     -3.62302405	      0.44849045	      0.91066274	     -0.07851378	     -9.56737833	      7.81746038	     -1.58005757	      4.86756030	     -7.03228331	      0.08495495	     24.49149248	      7.72759009	     -7.50644956	     37.22206537	     -1.05394326	     -4.50339833	     10.91025722	     -5.03155724	      0.19041991	      5.28895212	      2.92170406	     -7.50644956	      1.81311088	     -1.01782664	      3.68983890	      7.48576540	    -17.99951009	      1.32505392	     40.90716478	     90.00000001	      0.00000000	      0.00000000	    -18.61631854	    -11.03123837	    -14.20243610	     17.21898982	     90.00000001	      0.00000000	      0.00000000
      1.97000000	     -9.44949831	     -0.57838363	     -3.73369348	      0.46071764	      0.90978314	     -0.07879279	    -10.11188831	      7.28200464	     -1.36924125	      5.61062687	     -6.80777565	      0.09792391	     24.23002977	      7.60139987	     -7.50637928	     37.31104950	     -0.74369117	     -3.89698877	     12.36777990	     -5.02629244	      0.21585848	      4.61407483	      2.49588630	     -7.50637928	      1.73498764	     -1.55235325	      3.76620959	      7.16761215	    -17.85233170	      1.24711710	     40.81449233	     90.00000001	      0.00000000	      0.00000000	    -18.37890890	    -11.27881843	    -14.13820366	     17.19546944	     90.00000001	      0.00000000	      0.00000000
      1.98000000	     -9.32935353	     -0.18222255	     -3.71685274	      0.47325868	      0.90928054	     -0.07927748	    -10.63746012	      6.52844610	     -1.42177891	      6.46944494	     -6.41374301	      0.11291312	     23.77668520	      7.00683751	     -7.50626483	     37.60086145	     -0.28319956	     -3.50469210	     14.53416545	     -4.96906172	      0.25366904	      3.51075695	      0.60245233	     -7.50626483	      1.65070581	     -2.25522775	      3.73749098	      6.73797685	    -17.53562894	      0.86398765	     40.63038069	     90.00000001	      0.00000000	      0.00000000	    -17.96304073	    -11.54029809	    -13.93500839	     16.88647001	     90.00000001	      0.00000000	      0.00000000
      1.99000000	     -9.68887826	      0.10481429	     -3.61058027	      0.48524002	      0.90877798	     -0.07973599	    -10.48248295	      6.04367087	     -0.85981773	      7.62380514	     -6.14655818	      0.13306050	     23.03114439	      5.70671342	     -7.50594193	     38.00533991	      0.18098925	     -0.82026662	     16.09866704	     -4.49352138	      0.28097475	      1.43482567	     -4.13845264	     -7.50594193	      2.06440253	     -2.82917035	      3.70707479	      6.23035769	    -17.08728201	      0.10412265	     40.25700773	     90.00000001	      0.00000000	      0.00000000	    -17.45425051	    -11.84581158	    -13.69510115	     16.66889787	     90.00000001	      0.00000000	      0.00000000
      2.00000000	     -9.56827488	      0.50413985	     -3.43412261	      0.49800167	      0.90907493	     -0.08054164	    -10.83193978	      5.29034392	     -0.80224137	      8.80094273	     -5.69417579	      0.15360543	     22.04584935	      4.83449487	     -7.50563732	     38.01400935	      0.72839051	      0.64337557	     17.95927766	     -4.02013058	      0.31344853	      0.30898089	     -6.50663288	     -7.50563732	      1.97675227	     -3.53456705	      3.58524602	      5.68166321	    -16.76265953	     -0.21823176	     39.87371893	     90.00000001	      0.00000000	      0.00000000	    -16.93097818	    -12.13031704	    -13.46689250	     16.61823470	     90.00000001	      0.00000000	      0.00000000
